<svg preserveAspectRatio="none" viewBox="0 0 861 339" fill="none" xmlns="http://www.w3.org/2000/svg">
<rect y="123" width="105" height="63" rx="6" fill="#F0F0F0"/>
<rect x="108" y="48" width="105" height="138" rx="6" fill="#F0F0F0"/>
<rect x="215" y="94" width="105" height="92" rx="6" fill="#F0F0F0"/>
<rect x="323" y="155" width="106" height="31" rx="6" fill="#F0F0F0"/>
<rect x="432" y="117" width="106" height="69" rx="6" fill="#F0F0F0"/>
<rect x="541" y="160" width="105" height="26" rx="6" fill="#F0F0F0"/>
<rect x="648" y="85" width="105" height="101" rx="6" fill="#F0F0F0"/>
<rect x="756" y="66" width="105" height="120" rx="6" fill="#F0F0F0"/>
<rect y="254" width="13" height="13" rx="6" fill="#F0F0F0"/>
<rect y="278" width="13" height="13" rx="6" fill="#F0F0F0"/>
<rect y="302" width="13" height="13" rx="6" fill="#F0F0F0"/>
<rect y="326" width="13" height="13" rx="6" fill="#F0F0F0"/>
<rect x="25" y="254" width="91" height="13" rx="6" fill="#F0F0F0"/>
<rect x="25" y="278" width="91" height="13" rx="6" fill="#F0F0F0"/>
<rect x="25" y="302" width="91" height="13" rx="6" fill="#F0F0F0"/>
<rect x="25" y="326" width="91" height="13" rx="6" fill="#F0F0F0"/>
<rect x="128" y="254" width="47" height="13" rx="6" fill="#F0F0F0"/>
<rect x="128" y="278" width="47" height="13" rx="6" fill="#F0F0F0"/>
<rect y="206" width="13" height="13" rx="6" fill="#F0F0F0"/>
<rect y="230" width="13" height="13" rx="6" fill="#F0F0F0"/>
<rect x="25" y="206" width="91" height="13" rx="6" fill="#F0F0F0"/>
<rect x="25" y="230" width="91" height="13" rx="6" fill="#F0F0F0"/>
<rect x="128" y="206" width="47" height="13" rx="6" fill="#F0F0F0"/>
<rect x="128" y="230" width="47" height="13" rx="6" fill="#F0F0F0"/>
<rect x="128" y="302" width="47" height="13" rx="6" fill="#F0F0F0"/>
<rect x="128" y="326" width="47" height="13" rx="6" fill="#F0F0F0"/>
</svg>
