<svg viewBox="0 0 861 200" preserveAspectRatio="none" fill="none" xmlns="http://www.w3.org/2000/svg">
    <rect x="12" y="14" width="40" height="10" rx="5" fill="#f0f0f0"/>
    <rect x="12" y="44" width="40" height="10" rx="5" fill="#f0f0f0"/>
    <rect x="12" y="74" width="40" height="10" rx="5" fill="#f0f0f0"/>
    <rect x="12" y="104" width="40" height="10" rx="5" fill="#f0f0f0"/>
    <rect x="12" y="134" width="40" height="10" rx="5" fill="#f0f0f0"/>
    <rect x="52" y="176" width="80" height="10" rx="5" fill="#f0f0f0"/>
    <rect x="156" y="176" width="80" height="10" rx="5" fill="#f0f0f0"/>
    <rect x="260" y="176" width="80" height="10" rx="5" fill="#f0f0f0"/>
    <rect x="364" y="176" width="80" height="10" rx="5" fill="#f0f0f0"/>
    <rect x="468" y="176" width="80" height="10" rx="5" fill="#f0f0f0"/>
    <rect x="572" y="176" width="80" height="10" rx="5" fill="#f0f0f0"/>
    <rect x="676" y="176" width="80" height="10" rx="5" fill="#f0f0f0"/>
    <rect x="780" y="176" width="80" height="10" rx="5" fill="#f0f0f0"/>
    <rect x="64" y="15" width="795" height="149" stroke="#f0f0f0" stroke-width="1"/>
    <line x1="64" y1="48" x2="860" y2="48" stroke="#f0f0f0" stroke-width="1"/>
    <line x1="64" y1="78" x2="860" y2="78" stroke="#f0f0f0" stroke-width="1"/>
    <line x1="64" y1="108" x2="860" y2="108" stroke="#f0f0f0" stroke-width="1"/>
    <line x1="94" y1="14" x2="94" y2="165" stroke="#f0f0f0" stroke-width="1"/>
    <line x1="194" y1="14" x2="194" y2="165" stroke="#f0f0f0" stroke-width="1"/>
    <line x1="144" y1="14" x2="144" y2="165" stroke="#f0f0f0" stroke-width="1"/>
    <line x1="244" y1="14" x2="244" y2="165" stroke="#f0f0f0" stroke-width="1"/>
    <line x1="344" y1="14" x2="344" y2="165" stroke="#f0f0f0" stroke-width="1"/>
    <line x1="294" y1="14" x2="294" y2="165" stroke="#f0f0f0" stroke-width="1"/>
    <line x1="394" y1="14" x2="394" y2="165" stroke="#f0f0f0" stroke-width="1"/>
    <line x1="494" y1="14" x2="494" y2="165" stroke="#f0f0f0" stroke-width="1"/>
    <line x1="444" y1="14" x2="444" y2="165" stroke="#f0f0f0" stroke-width="1"/>
    <line x1="544" y1="14" x2="544" y2="165" stroke="#f0f0f0" stroke-width="1"/>
    <line x1="644" y1="14" x2="644" y2="165" stroke="#f0f0f0" stroke-width="1"/>
    <line x1="594" y1="14" x2="594" y2="165" stroke="#f0f0f0" stroke-width="1"/>
    <line x1="694" y1="14" x2="694" y2="165" stroke="#f0f0f0" stroke-width="1"/>
    <line x1="794" y1="14" x2="794" y2="165" stroke="#f0f0f0" stroke-width="1"/>
    <line x1="844" y1="14" x2="844" y2="165" stroke="#f0f0f0" stroke-width="1"/>
    <line x1="744" y1="14" x2="744" y2="165" stroke="#f0f0f0" stroke-width="1"/>
    <line x1="64" y1="138" x2="860" y2="138" stroke="#f0f0f0" stroke-width="1"/>
</svg>
