<svg width="350" height="150" viewBox="0 0 350 150" fill="none" xmlns="http://www.w3.org/2000/svg">
<g clip-path="url(#clip0_5_130)">
<path fill-rule="evenodd" clip-rule="evenodd" d="M75 150C116.421 150 150 116.421 150 75C150 33.5786 116.421 0 75 0C33.5786 0 0 33.5786 0 75C0 116.421 33.5786 150 75 150ZM75 130C105.376 130 130 105.376 130 75C130 44.6243 105.376 20 75 20C44.6243 20 20 44.6243 20 75C20 105.376 44.6243 130 75 130Z" fill="#F0F0F0"/>
<rect x="175" width="13" height="13" rx="6" fill="#F0F0F0"/>
<rect x="175" y="24" width="13" height="13" rx="6" fill="#F0F0F0"/>
<rect x="175" y="48" width="13" height="13" rx="6" fill="#F0F0F0"/>
<rect x="175" y="72" width="13" height="13" rx="6" fill="#F0F0F0"/>
<rect x="200" width="91" height="13" rx="6" fill="#F0F0F0"/>
<rect x="200" y="24" width="91" height="13" rx="6" fill="#F0F0F0"/>
<rect x="200" y="48" width="91" height="13" rx="6" fill="#F0F0F0"/>
<rect x="200" y="72" width="91" height="13" rx="6" fill="#F0F0F0"/>
<rect x="303" width="47" height="13" rx="6" fill="#F0F0F0"/>
<rect x="303" y="24" width="47" height="13" rx="6" fill="#F0F0F0"/>
<rect x="303" y="48" width="47" height="13" rx="6" fill="#F0F0F0"/>
<rect x="303" y="72" width="47" height="13" rx="6" fill="#F0F0F0"/>
</g>
<defs>
<clipPath id="clip0_5_130">
<rect width="350" height="150" fill="white"/>
</clipPath>
</defs>
</svg>
