<svg viewBox="0 0 923 229" preserveAspectRatio="none" fill="none" xmlns="http://www.w3.org/2000/svg">
<rect x="25" width="182" height="16" rx="6" fill="#F0F0F0"/>
<rect x="410" width="182" height="16" rx="6" fill="#F0F0F0"/>
<rect x="632" width="120" height="16" rx="6" fill="#F0F0F0"/>
<rect x="792" width="120" height="16" rx="6" fill="#F0F0F0"/>
<rect x="25" y="41" width="182" height="16" rx="6" fill="#F0F0F0"/>
<rect x="410" y="41" width="182" height="16" rx="6" fill="#F0F0F0"/>
<rect x="632" y="41" width="120" height="16" rx="6" fill="#F0F0F0"/>
<rect x="792" y="41" width="120" height="16" rx="6" fill="#F0F0F0"/>
<rect x="25" y="81" width="182" height="16" rx="6" fill="#F0F0F0"/>
<rect x="410" y="81" width="182" height="16" rx="6" fill="#F0F0F0"/>
<rect x="632" y="81" width="120" height="16" rx="6" fill="#F0F0F0"/>
<rect x="792" y="81" width="120" height="16" rx="6" fill="#F0F0F0"/>
<rect x="25" y="121" width="182" height="16" rx="6" fill="#F0F0F0"/>
<rect x="410" y="121" width="182" height="16" rx="6" fill="#F0F0F0"/>
<rect x="632" y="121" width="120" height="16" rx="6" fill="#F0F0F0"/>
<rect x="792" y="121" width="120" height="16" rx="6" fill="#F0F0F0"/>
<rect x="25" y="161" width="182" height="16" rx="6" fill="#F0F0F0"/>
<rect x="410" y="161" width="182" height="16" rx="6" fill="#F0F0F0"/>
<rect x="632" y="161" width="120" height="16" rx="6" fill="#F0F0F0"/>
<rect x="792" y="161" width="120" height="16" rx="6" fill="#F0F0F0"/>
<rect x="25" y="201" width="182" height="16" rx="6" fill="#F0F0F0"/>
<rect x="410" y="201" width="182" height="16" rx="6" fill="#F0F0F0"/>
<rect x="632" y="201" width="120" height="16" rx="6" fill="#F0F0F0"/>
<rect x="792" y="201" width="120" height="16" rx="6" fill="#F0F0F0"/>
<line y1="28" x2="923" y2="28" stroke="#F0F0F0" stroke-width="2"/>
</svg>
